<svg width="21" height="20" viewBox="0 0 21 20" fill="none" xmlns="http://www.w3.org/2000/svg">
<path fill-rule="evenodd" clip-rule="evenodd" d="M17.2672 4.16667H14.5305L13.46 3.04167C13.1406 2.7 12.6744 2.5 12.1909 2.5H8.53048C8.04703 2.5 7.58084 2.7 7.25278 3.04167L6.19091 4.16667H3.45422C2.50458 4.16667 1.7276 4.91667 1.7276 5.83333V15.8333C1.7276 16.75 2.50458 17.5 3.45422 17.5H17.2672C18.2168 17.5 18.9938 16.75 18.9938 15.8333V5.83333C18.9938 4.91667 18.2168 4.16667 17.2672 4.16667ZM10.3607 15C7.97796 15 6.04415 13.1333 6.04415 10.8333C6.04415 8.53333 7.97796 6.66667 10.3607 6.66667C12.7434 6.66667 14.6772 8.53333 14.6772 10.8333C14.6772 13.1333 12.7434 15 10.3607 15ZM9.28156 9.79167L10.3607 7.5L11.4398 9.79167L13.8139 10.8333L11.4398 11.875L10.3607 14.1667L9.28156 11.875L6.90746 10.8333L9.28156 9.79167Z" fill="#5B5C74"/>
</svg>
