<svg width="26" height="24" viewBox="0 0 26 24" fill="none" xmlns="http://www.w3.org/2000/svg">
<path fill-rule="evenodd" clip-rule="evenodd" d="M16.1982 11.5C16.1982 13.16 14.8212 14.5 13.1153 14.5C11.4094 14.5 10.0324 13.16 10.0324 11.5V5.5C10.0324 3.84 11.4094 2.5 13.1153 2.5C14.8212 2.5 16.1982 3.84 16.1982 5.5V11.5ZM18.1816 12.35C18.2638 11.86 18.6851 11.5 19.1887 11.5C19.8155 11.5 20.3191 12.04 20.2163 12.64C19.7128 15.64 17.2464 17.99 14.1429 18.42V20.5C14.1429 21.05 13.6805 21.5 13.1153 21.5C12.5501 21.5 12.0877 21.05 12.0877 20.5V18.42C8.98418 17.99 6.51784 15.64 6.0143 12.64C5.92181 12.04 6.41508 11.5 7.04194 11.5C7.54549 11.5 7.96682 11.86 8.04903 12.35C8.47036 14.7 10.577 16.5 13.1153 16.5C15.6536 16.5 17.7603 14.7 18.1816 12.35Z" fill="#5B5C74"/>
</svg>
