<svg width="13" height="11" viewBox="0 0 13 11" fill="none" xmlns="http://www.w3.org/2000/svg">
<g clip-path="url(#clip0)">
<path d="M10.897 5.11084H11.8439C12.1098 5.11084 12.3253 5.29687 12.3253 5.52636C12.3253 5.75585 12.1098 5.94187 11.8439 5.94187H10.897C10.6311 5.94187 10.4155 5.75585 10.4155 5.52636C10.4155 5.29687 10.6311 5.11084 10.897 5.11084ZM0.481458 5.94187H1.42832C1.69423 5.94187 1.90977 5.75585 1.90977 5.52636C1.90977 5.29687 1.69423 5.11084 1.42832 5.11084H0.481458C0.215549 5.11084 0 5.29687 0 5.52636C0 5.75585 0.215549 5.94187 0.481458 5.94187ZM6.16266 1.85597C6.42857 1.85597 6.64412 1.66994 6.64412 1.44045V0.623279C6.64412 0.39379 6.42857 0.207764 6.16266 0.207764C5.89675 0.207764 5.6812 0.39379 5.6812 0.623279V1.44045C5.6812 1.66994 5.89675 1.85597 6.16266 1.85597ZM2.47452 2.93101C2.66251 3.09325 2.96739 3.09329 3.15543 2.93101C3.34346 2.76873 3.34346 2.50563 3.15543 2.34337L2.48591 1.76553C2.29788 1.60325 1.99302 1.60325 1.80501 1.76553C1.617 1.92781 1.61698 2.19091 1.80501 2.35317L2.47452 2.93101ZM9.85079 2.93101L10.5203 2.35317C10.7084 2.19089 10.7084 1.92779 10.5203 1.76553C10.3323 1.60327 10.0274 1.60325 9.83943 1.76553L9.16989 2.34337C8.98186 2.50565 8.98186 2.76875 9.16989 2.93101C9.35788 3.09325 9.66276 3.09329 9.85079 2.93101ZM12.3253 7.9779C12.3253 8.20739 12.1098 8.39342 11.8439 8.39342C11.2814 8.39342 0.597706 8.39342 0.481458 8.39342C0.215549 8.39342 0 8.20739 0 7.9779C0 7.74841 0.215549 7.56238 0.481458 7.56238H3.82042C3.21318 7.04203 2.83658 6.32147 2.83658 5.52636C2.83658 3.94354 4.32864 2.65583 6.16266 2.65583C7.99668 2.65583 9.48874 3.94354 9.48874 5.52636C9.48874 6.32147 9.11214 7.04203 8.5049 7.56238H11.8439C12.1098 7.56238 12.3253 7.74841 12.3253 7.9779ZM6.02648 7.56238H6.29886C7.53878 7.50128 8.52585 6.61148 8.52585 5.52636C8.52585 4.40177 7.46575 3.48686 6.16268 3.48686C4.85962 3.48686 3.7995 4.40177 3.7995 5.52636C3.7995 6.61148 4.78656 7.50128 6.02648 7.56238ZM9.95012 9.59841H2.3752C2.10929 9.59841 1.89374 9.78444 1.89374 10.0139C1.89374 10.2434 2.10929 10.4294 2.3752 10.4294H9.95012C10.216 10.4294 10.4316 10.2434 10.4316 10.0139C10.4316 9.78444 10.216 9.59841 9.95012 9.59841Z" fill="#5B5C74"/>
</g>
<defs>
<clipPath id="clip0">
<rect width="12.3253" height="10.6372" fill="white"/>
</clipPath>
</defs>
</svg>
