<svg width="12" height="12" viewBox="0 0 12 12" fill="none" xmlns="http://www.w3.org/2000/svg">
<path d="M5.33678 1.78644L5.9744 2.10987L6.29725 2.74756C6.31804 2.78855 6.38128 2.91326 6.51857 2.91329C6.65596 2.91329 6.71948 2.78804 6.74036 2.74688L7.06314 2.10992L7.70013 1.78712C7.74126 1.76626 7.86649 1.70274 7.86649 1.56535C7.86649 1.42805 7.74175 1.36482 7.70069 1.34396L7.06312 1.02118L6.73971 0.383561C6.71887 0.342498 6.6555 0.217529 6.51848 0.217529C6.38146 0.217529 6.31809 0.342521 6.29723 0.383678L5.97442 1.02122L5.33678 1.34405C5.29572 1.36489 5.17075 1.42826 5.17078 1.56528C5.17078 1.70227 5.29575 1.76562 5.33678 1.78644ZM6.18461 1.30885C6.21801 1.29193 6.24513 1.26481 6.26205 1.23141L6.51855 0.724764L6.77557 1.23151C6.79249 1.26486 6.81958 1.29193 6.85293 1.30883L7.35982 1.56544L6.85289 1.82234C6.81953 1.83926 6.79244 1.86633 6.77554 1.89969L6.51864 2.40662L6.26205 1.89976C6.24515 1.8664 6.21808 1.83931 6.18475 1.82239L5.67801 1.56533L6.18461 1.30885Z" fill="#1A1A37"/>
<path d="M1.21431 4.14144C1.23509 4.18241 1.29833 4.30714 1.4353 4.30714C1.57236 4.30712 1.63585 4.18189 1.65669 4.14085L1.98015 3.50375L2.61713 3.18031C2.65829 3.15946 2.78349 3.09596 2.78352 2.9589C2.78354 2.82193 2.65881 2.75868 2.61784 2.73791L1.98017 2.41447L1.65674 1.77681C1.63595 1.73582 1.57271 1.61111 1.43574 1.61108C1.2987 1.61108 1.23519 1.73633 1.21435 1.77737L0.890892 2.41447L0.253884 2.73789C0.212728 2.75877 0.087501 2.82226 0.0875244 2.95935C0.0875244 3.09634 0.212282 3.15955 0.253204 3.18029L0.890868 3.50375L1.21431 4.14144ZM1.1012 2.70193C1.13443 2.68503 1.16148 2.65803 1.17835 2.62478L1.43563 2.11804L1.69262 2.62471C1.70952 2.65801 1.73656 2.68506 1.76987 2.70196L2.27654 2.95895L1.7698 3.21624C1.73654 3.23314 1.70952 3.26014 1.69264 3.2934L1.43537 3.80014L1.17838 3.29347C1.16148 3.26017 1.13443 3.23312 1.10113 3.21622L0.594454 2.95921L1.1012 2.70193Z" fill="#1A1A37"/>
<path d="M10.7904 9.47867C10.7206 9.24113 10.5707 9.03852 10.3743 8.89932C12.2625 6.63331 12.1231 3.28283 10.0188 1.17847C9.59493 0.754578 9.11139 0.401797 8.58165 0.129922C8.35834 0.0153129 8.13405 -0.0699293 8.00612 0.0814535C7.87907 0.231735 7.99731 0.434211 8.14403 0.630711C8.94529 1.70263 9.26652 3.07663 9.02535 4.40042C9.00794 4.49591 9.07126 4.58743 9.16677 4.60484C9.26223 4.622 9.3538 4.55891 9.37119 4.4634C9.6268 3.06029 9.29305 1.60428 8.45533 0.460414C8.9391 0.713094 9.38134 1.0382 9.77022 1.42705C11.7663 3.4232 11.8792 6.61386 10.0477 8.74135C9.95228 8.71362 9.85201 8.6987 9.74901 8.6987C9.70009 8.6987 9.65151 8.70191 9.6036 8.70828C9.37675 8.2913 8.94107 8.02902 8.45687 8.02902C8.03183 8.02902 7.63133 8.23909 7.3884 8.58345C6.84798 8.60729 6.41563 9.05441 6.41563 9.60062C6.41563 9.6537 6.41969 9.70655 6.42772 9.7587C6.17969 9.97761 6.02516 10.2868 5.9984 10.6169C4.56461 10.6259 3.17298 10.0565 2.15692 9.04039C1.76765 8.65173 1.44257 8.20974 1.19033 7.72618C2.1745 8.44667 3.38727 8.79718 4.61148 8.71416C5.8644 8.62906 7.04418 8.09262 7.93354 7.20357C8.46503 6.67142 8.86705 6.04681 9.12845 5.34711C9.16241 5.25617 9.11624 5.1549 9.0253 5.12094C8.93439 5.08695 8.83309 5.13313 8.79911 5.22406C8.5554 5.87638 8.1805 6.4588 7.68487 6.95502C5.99275 8.64659 3.2739 8.84427 1.36075 7.41498C1.16439 7.26795 0.961935 7.14938 0.811537 7.27634C0.66006 7.40415 0.745209 7.62875 0.859818 7.85241C1.13127 8.38201 1.48408 8.86538 1.90839 9.28902C2.48258 9.86326 3.1551 10.3006 3.90721 10.589C4.5655 10.8414 5.25472 10.9689 5.95916 10.9689C5.97883 10.9689 5.99856 10.9685 6.01825 10.9683C6.13452 11.5557 6.65373 12 7.27499 12H7.92271C8.01979 12 8.09849 11.9213 8.09849 11.8242C8.09849 11.7271 8.01979 11.6484 7.92271 11.6484H7.27499C6.76236 11.6484 6.34529 11.2316 6.34529 10.7194C6.34529 10.4241 6.48751 10.1439 6.72569 9.96966C6.78463 9.92656 6.81076 9.85152 6.7914 9.78113C6.7753 9.72263 6.76715 9.66188 6.76715 9.60057C6.76715 9.233 7.06619 8.93394 7.43376 8.93394C7.44803 8.93394 7.4623 8.93455 7.47658 8.93513C7.5407 8.93724 7.60192 8.90464 7.63485 8.84902C7.80592 8.56004 8.1209 8.38051 8.45685 8.38051C8.84713 8.38051 9.19422 8.61345 9.34108 8.97397C9.37478 9.0567 9.46515 9.10105 9.55122 9.07691C9.61464 9.05916 9.68118 9.05016 9.74901 9.05016C10.109 9.05016 10.4207 9.31773 10.474 9.67255C10.487 9.75856 10.5609 9.82217 10.6479 9.82217C11.1513 9.82217 11.5609 10.2318 11.5609 10.7353C11.5609 11.2388 11.1513 11.6484 10.6479 11.6484H8.73456C8.63748 11.6484 8.55878 11.7271 8.55878 11.8242C8.55878 11.9213 8.63748 12 8.73456 12H10.6479C11.3452 12 11.9125 11.4327 11.9125 10.7353C11.9125 10.0862 11.4209 9.54969 10.7904 9.47867Z" fill="#1A1A37"/>
<path d="M2.64148 5.64906C2.64148 6.13504 3.03652 6.53038 3.52212 6.53038H5.81345C6.49356 6.53038 7.04685 5.97705 7.04685 5.29694C7.04685 4.61683 6.49354 4.06352 5.81345 4.06352C5.80919 4.06352 5.80497 4.06355 5.80077 4.06359C5.55086 3.63174 5.08398 3.35864 4.57977 3.35864C3.80258 3.35864 3.1703 3.99094 3.1703 4.76814C3.1703 4.79229 3.17091 4.8165 3.17218 4.84073C2.85333 4.97782 2.64148 5.29131 2.64148 5.64906ZM3.40149 5.13391C3.49112 5.11291 3.54933 5.02628 3.53499 4.93537C3.52627 4.88022 3.52187 4.82395 3.52187 4.76812C3.52187 4.18476 3.99643 3.71018 4.57977 3.71018C4.98892 3.71018 5.3653 3.94969 5.53862 4.32037C5.57085 4.38928 5.64365 4.42952 5.71926 4.42038C5.74848 4.41679 5.77928 4.41504 5.81343 4.41504C6.29969 4.41504 6.69529 4.81064 6.69529 5.29692C6.69529 5.7832 6.29969 6.17882 5.81343 6.17882H3.5221C3.23035 6.17882 2.993 5.94116 2.993 5.64904C2.99304 5.40215 3.161 5.19032 3.40149 5.13391Z" fill="#1A1A37"/>
</svg>
