<svg width="50" height="50" viewBox="0 0 50 50" fill="none" xmlns="http://www.w3.org/2000/svg">
<path fill-rule="evenodd" clip-rule="evenodd" d="M37.5036 22.3958V32.8125L40.1911 35.5C41.5036 36.8125 40.5661 39.0625 38.7119 39.0625H11.2744C9.42022 39.0625 8.50356 36.8125 9.81606 35.5L12.5036 32.8125V22.3958C12.5036 15.9792 15.8994 10.6458 21.8786 9.22917V7.8125C21.8786 6.08333 23.2744 4.6875 25.0036 4.6875C26.7327 4.6875 28.1286 6.08333 28.1286 7.8125V9.22917C34.0869 10.6458 37.5036 16 37.5036 22.3958ZM29.1702 41.1458C29.1702 43.4375 27.2952 45.3125 25.0036 45.3125C22.6911 45.3125 20.8369 43.4375 20.8369 41.1458H29.1702Z" fill="#5B5C74"/>
</svg>
