<svg width="26" height="24" viewBox="0 0 26 24" fill="none" xmlns="http://www.w3.org/2000/svg">
<path fill-rule="evenodd" clip-rule="evenodd" d="M16.1603 14.4716H16.9721L21.3294 18.7316C21.7507 19.1416 21.7507 19.8116 21.3294 20.2216C20.908 20.6316 20.2195 20.6316 19.7982 20.2216L15.4307 15.9716V15.1816L15.1532 14.9016C13.7145 16.1016 11.7517 16.7216 9.66561 16.3816C6.80877 15.9116 4.5274 13.5916 4.178 10.7916C3.64363 6.56157 7.30203 3.00157 11.649 3.52157C14.5264 3.86157 16.9105 6.08157 17.3935 8.86157C17.7429 10.8916 17.1057 12.8016 15.8726 14.2016L16.1603 14.4716ZM6.1819 9.97157C6.1819 12.4616 8.24747 14.4716 10.8063 14.4716C13.3651 14.4716 15.4307 12.4616 15.4307 9.97157C15.4307 7.48157 13.3651 5.47157 10.8063 5.47157C8.24747 5.47157 6.1819 7.48157 6.1819 9.97157Z" fill="#5B5C74"/>
</svg>
