<svg width="24" height="25" viewBox="0 0 24 25" fill="none" xmlns="http://www.w3.org/2000/svg">
<path fill-rule="evenodd" clip-rule="evenodd" d="M12 2.5C6.48 2.5 2 6.98 2 12.5C2 18.02 6.48 22.5 12 22.5C17.52 22.5 22 18.02 22 12.5C22 6.98 17.52 2.5 12 2.5ZM7.75 13.5C7.75 12.81 8.31 12.25 9 12.25C9.69 12.25 10.25 12.81 10.25 13.5C10.25 14.19 9.69 14.75 9 14.75C8.31 14.75 7.75 14.19 7.75 13.5ZM13.75 13.5C13.75 12.81 14.31 12.25 15 12.25C15.69 12.25 16.25 12.81 16.25 13.5C16.25 14.19 15.69 14.75 15 14.75C14.31 14.75 13.75 14.19 13.75 13.5ZM4 12.5C4 16.91 7.59 20.5 12 20.5C16.41 20.5 20 16.91 20 12.5C20 11.71 19.88 10.95 19.67 10.24C18.95 10.41 18.2 10.5 17.42 10.5C14.05 10.5 11.07 8.83 9.26 6.27C8.28 8.66 6.41 10.59 4.05 11.64C4.02 11.92 4 12.21 4 12.5Z" fill="#5B5C74"/>
</svg>
