<svg width="24" height="25" viewBox="0 0 24 25" fill="none" xmlns="http://www.w3.org/2000/svg">
<path fill-rule="evenodd" clip-rule="evenodd" d="M14 4.5C14 3.4 13.1 2.5 12 2.5C10.9 2.5 10 3.4 10 4.5C10 5.6 10.9 6.5 12 6.5C13.1 6.5 14 5.6 14 4.5ZM15 9.5H20C20.55 9.5 21 9.05 21 8.5C21 7.95 20.55 7.5 20 7.5H4C3.45 7.5 3 7.95 3 8.5C3 9.05 3.45 9.5 4 9.5H9V21.5C9 22.05 9.45 22.5 10 22.5C10.55 22.5 11 22.05 11 21.5V16.5H13V21.5C13 22.05 13.45 22.5 14 22.5C14.55 22.5 15 22.05 15 21.5V9.5Z" fill="#5B5C74"/>
</svg>
