<svg width="24" height="25" viewBox="0 0 24 25" fill="none" xmlns="http://www.w3.org/2000/svg">
<path fill-rule="evenodd" clip-rule="evenodd" d="M21 3.5H3C1.9 3.5 1 4.4 1 5.5V19.5C1 20.6 1.9 21.5 3 21.5H21C22.1 21.5 23 20.6 23 19.5V5.5C23 4.4 22.1 3.5 21 3.5ZM9 9.5H7V11.5C7 12.05 6.55 12.5 6 12.5C5.45 12.5 5 12.05 5 11.5V8.5C5 7.95 5.45 7.5 6 7.5H9C9.55 7.5 10 7.95 10 8.5C10 9.05 9.55 9.5 9 9.5ZM17 13.5C17 12.95 17.45 12.5 18 12.5C18.55 12.5 19 12.95 19 13.5V16.5C19 17.05 18.55 17.5 18 17.5H15C14.45 17.5 14 17.05 14 16.5C14 15.95 14.45 15.5 15 15.5H17V13.5ZM4 19.51H20C20.55 19.51 21 19.06 21 18.51V6.49C21 5.94 20.55 5.49 20 5.49H4C3.45 5.49 3 5.94 3 6.49V18.51C3 19.06 3.45 19.51 4 19.51Z" fill="#5B5C74"/>
</svg>
