<svg width="25" height="24" viewBox="0 0 25 24" fill="none" xmlns="http://www.w3.org/2000/svg">
<path d="M18.3038 5.70996C18.117 5.5227 17.8633 5.41747 17.5988 5.41747C17.3343 5.41747 17.0806 5.5227 16.8938 5.70996L12.0038 10.59L7.11382 5.69996C6.92698 5.5127 6.67333 5.40747 6.40882 5.40747C6.1443 5.40747 5.89065 5.5127 5.70382 5.69996C5.31382 6.08996 5.31382 6.71996 5.70382 7.10996L10.5938 12L5.70382 16.89C5.31382 17.28 5.31382 17.91 5.70382 18.3C6.09382 18.69 6.72382 18.69 7.11382 18.3L12.0038 13.41L16.8938 18.3C17.2838 18.69 17.9138 18.69 18.3038 18.3C18.6938 17.91 18.6938 17.28 18.3038 16.89L13.4138 12L18.3038 7.10996C18.6838 6.72996 18.6838 6.08996 18.3038 5.70996Z" fill="#FC3363"/>
</svg>
