<svg width="100" height="100" viewBox="0 0 100 100" fill="none" xmlns="http://www.w3.org/2000/svg">
<ellipse cx="50" cy="51" rx="41" ry="40" fill="white"/>
<path fill-rule="evenodd" clip-rule="evenodd" d="M49.9999 8.3335C26.9999 8.3335 8.33325 27.0002 8.33325 50.0002C8.33325 73.0002 26.9999 91.6668 49.9999 91.6668C72.9999 91.6668 91.6666 73.0002 91.6666 50.0002C91.6666 27.0002 72.9999 8.3335 49.9999 8.3335ZM49.9999 20.8335C56.9166 20.8335 62.4999 26.4168 62.4999 33.3335C62.4999 40.2502 56.9166 45.8335 49.9999 45.8335C43.0833 45.8335 37.4999 40.2502 37.4999 33.3335C37.4999 26.4168 43.0833 20.8335 49.9999 20.8335ZM24.9999 66.5836C30.3749 74.6669 39.5833 80.0002 49.9999 80.0002C60.4166 80.0002 69.6249 74.6669 74.9999 66.5836C74.8749 58.2919 58.2916 53.7502 49.9999 53.7502C41.6666 53.7502 25.1249 58.2919 24.9999 66.5836Z" fill="#FC3363"/>
</svg>
