<svg width="24" height="24" viewBox="0 0 24 24" fill="none" xmlns="http://www.w3.org/2000/svg">
<g clip-path="url(#clip0)">
<path d="M21.7188 5.25091L14.2 0.567271C12.9855 -0.189261 11.015 -0.189571 9.8 0.567271L2.28118 5.25091C1.06671 6.00744 1.06615 7.23489 2.28118 7.99173L9.8 12.6754C11.0145 13.4319 12.9849 13.4322 14.2 12.6754L21.7188 7.99173C22.9332 7.2352 22.9338 6.00775 21.7188 5.25091ZM13.1345 10.4702C12.5149 10.8633 11.5079 10.8617 10.891 10.4702L4.83366 6.62623L10.891 2.79397C11.5105 2.40202 12.5175 2.40369 13.1345 2.79397L19.1918 6.62623L13.1345 10.4702Z" fill="#5B5C74"/>
<path d="M21.7188 10.7109L21.562 10.6132L13.6612 15.5983L13.6583 15.5979L13.1345 15.9302C12.515 16.3234 11.508 16.3218 10.8911 15.9302L4.83372 12.0863L4.83509 12.0854L2.46803 10.5945L2.28118 10.7109C1.06671 11.4674 1.06615 12.6949 2.28118 13.4517L9.8 18.1353C11.0145 18.8919 12.9849 18.8922 14.2 18.1353L21.7188 13.4517C22.9333 12.6952 22.9339 11.4678 21.7188 10.7109Z" fill="#5B5C74"/>
<path d="M21.7188 16.008L21.5619 15.9103L13.6612 20.8954L13.6583 20.895L13.1345 21.2273C12.5149 21.6205 11.5079 21.6188 10.891 21.2273L4.83372 17.3833L4.83509 17.3824L2.46803 15.8916L2.28118 16.008C1.06671 16.7645 1.06615 17.992 2.28118 18.7488L9.8 23.4325C11.0145 24.189 12.9849 24.1893 14.2 23.4325L21.7188 18.7488C22.9332 17.9923 22.9338 16.7648 21.7188 16.008Z" fill="#5B5C74"/>
</g>
<defs>
<clipPath id="clip0">
<rect width="24" height="24" fill="white"/>
</clipPath>
</defs>
</svg>
