<svg width="24" height="24" viewBox="0 0 24 24" fill="none" xmlns="http://www.w3.org/2000/svg">
<g clip-path="url(#clip0)">
<path d="M20.9654 14.286L20.9483 14.0512C20.6734 10.4722 19.0069 8.22865 17.5368 6.24971C16.1755 4.41724 14.9998 2.8348 14.9998 0.499904C14.9998 0.312411 14.8948 0.141043 14.7283 0.0550771C14.5613 -0.0313572 14.3606 -0.0172015 14.2088 0.093185C12.0009 1.67319 10.1587 4.3362 9.51516 6.87711C9.06841 8.6461 9.0093 10.6348 9.00101 11.9482C6.96202 11.5127 6.50013 8.4625 6.49526 8.42931C6.47229 8.27112 6.37563 8.1334 6.23501 8.05822C6.09294 7.98402 5.92593 7.97863 5.78189 8.04992C5.67497 8.10167 3.15746 9.38093 3.01098 14.4891C3.00071 14.6591 3.00024 14.829 3.00024 14.9994C3.00024 19.9616 7.03767 23.999 11.9999 23.999C16.9621 23.999 20.9996 19.9616 20.9996 14.9994C20.9996 14.7504 20.9825 14.518 20.9654 14.286ZM11.9999 22.9991C10.3457 22.9991 9.00002 21.5655 9.00002 19.8034C9.00002 19.7433 8.99955 19.6828 9.00391 19.6086C9.02393 18.8655 9.16506 18.3581 9.31984 18.0208C9.60989 18.6438 10.1289 19.2165 10.9707 19.2165C11.247 19.2165 11.4707 18.9929 11.4707 18.7165C11.4707 18.0046 11.4853 17.1834 11.6626 16.4422C11.8203 15.7845 12.1972 15.0857 12.6747 14.5252C12.8871 15.2527 13.3012 15.8416 13.7055 16.4163C14.2841 17.2385 14.8822 18.0886 14.9872 19.5382C14.9935 19.6241 14.9999 19.7106 14.9999 19.8033C14.9998 21.5655 13.6542 22.9991 11.9999 22.9991ZM15.1597 22.3458C15.6787 21.6381 15.9998 20.7632 15.9998 19.8034C15.9998 19.6857 15.9925 19.5763 15.9778 19.3718C15.8592 17.7395 15.1497 16.7308 14.5233 15.8407C13.9896 15.0829 13.5292 14.4282 13.5292 13.4995C13.5292 13.3095 13.4218 13.1362 13.2518 13.0517C13.0829 12.9667 12.8788 12.9858 12.7279 13.1006C11.769 13.8251 10.9692 15.0448 10.6899 16.2093C10.5474 16.8065 10.4976 17.4525 10.48 17.9837C10.1333 17.6107 10.0259 16.9193 10.025 16.91C10.0025 16.7494 9.90388 16.6092 9.75984 16.5345C9.61678 16.4603 9.44541 16.4584 9.30137 16.5326C9.17537 16.597 8.06851 17.2318 8.00504 19.5666C8.00064 19.6458 8.00017 19.7248 8.00017 19.8034C8.00017 20.7633 8.32125 21.6381 8.84023 22.3458C5.99671 21.118 4.00033 18.2884 4.00033 14.9994C4.00033 14.8495 3.99986 14.7002 4.01008 14.5336C4.096 11.5366 5.05498 10.0504 5.68093 9.39467C6.11741 10.9571 7.26093 12.9995 9.50011 12.9995C9.77648 12.9995 10.0001 12.7759 10.0001 12.4995C10.0001 10.8262 10.0377 8.8927 10.485 7.12225C10.9927 5.11645 12.3838 2.95053 14.0629 1.48429C14.3417 3.62584 15.5082 5.19609 16.7342 6.84589C18.1917 8.80772 19.6985 10.8364 19.9509 14.1215L19.968 14.3608C19.9836 14.5688 19.9998 14.7763 19.9998 14.9994C19.9996 18.2883 18.0032 21.118 15.1597 22.3458Z" fill="#5B5C74"/>
</g>
<defs>
<clipPath id="clip0">
<rect width="24" height="24" fill="white"/>
</clipPath>
</defs>
</svg>
